<svg height="512" viewBox="0 0 128 128" width="512" xmlns="http://www.w3.org/2000/svg"><g><path d="m92.969 35.292a2.136 2.136 0 1 0 -2.136-2.136 2.139 2.139 0 0 0 2.136 2.136z"/><path d="m110.018 101.31h-29.469a10.157 10.157 0 0 0 -6.79-6.891 12.665 12.665 0 0 1 -2.451-6.255 20.352 20.352 0 0 0 9.57-12.2c2-.492 5.989-1.85 7.927-5.12a3.834 3.834 0 0 1 .974 1.068 1.752 1.752 0 0 0 2.412.516 3.3 3.3 0 0 1 3.714.209 1.749 1.749 0 0 0 2.807-.977 7.71 7.71 0 0 0 -3.81-8.526 19.364 19.364 0 0 0 2.474-9.428c3.815-.828 11.991-3.114 12.966-7.662a25.774 25.774 0 0 0 .875-5.84 1.752 1.752 0 0 0 -2.247-1.426 47.466 47.466 0 0 1 -9.37 1.712q.355-.3.723-.64c3.389-3.138 6.045-4.186 9.465-3.745a1.749 1.749 0 0 0 1.976-1.735c0-.33-.067-8.106-5.86-10.44-3.693-1.489-5.613-.424-7.155.432a4.636 4.636 0 0 1 -2.282.792c-.311.007-.68 0-1.09 0-4.072-.04-13.592-.129-15.109 9.66-.134.864-.251 1.687-.364 2.471-1.067 7.459-1.467 10.251-9.961 12.176-11.005 2.495-20.812 6.257-29.384 27.123a8.326 8.326 0 0 1 -7.632 5.6 10.451 10.451 0 0 1 -9.466-5.238c-1.374-2.736-.824-5.769 1.592-8.773a1.75 1.75 0 0 0 -2.574-2.361c-.26.25-6.379 6.2-6 13.636.21 4.181 2.395 7.923 6.493 11.122a19.8 19.8 0 0 0 12.48 4.38c6.52 0 12.806-2.985 17.7-6.2a7.688 7.688 0 0 1 -.79 3.483 1.751 1.751 0 0 0 .026 1.578 19.187 19.187 0 0 1 1.957 7.5h-36.363a1.75 1.75 0 0 0 0 3.5h92.036a1.75 1.75 0 0 0 0-3.5zm-84.892-13.5c-3.255-2.541-4.988-5.408-5.15-8.521a9.806 9.806 0 0 1 .036-1.487c.107.258.217.5.326.714a13.917 13.917 0 0 0 12.725 7.164 11.832 11.832 0 0 0 10.737-7.767c7.948-19.344 16.529-22.684 26.92-25.04 10.844-2.457 11.564-7.484 12.653-15.093.11-.771.226-1.581.358-2.431.972-6.271 6.5-6.749 11.617-6.7.45 0 .853.007 1.2 0a7.893 7.893 0 0 0 3.908-1.23c1.248-.693 2-1.112 4.148-.247 2.272.915 3.137 3.525 3.467 5.335-3.535.075-6.664 1.573-10.117 4.77-2.994 2.773-4.814 2.68-4.764 2.69a1.75 1.75 0 0 0 -.8 3.4c4.858 1.422 11.445.271 15.032-.571-.118.65-.279 1.472-.5 2.507-.464 2.165-7.1 4.443-11.712 5.255a1.751 1.751 0 0 0 -1.43 1.96c.542 3.973-1.213 7.666-2.217 9.4a15.872 15.872 0 0 0 -5.053-.831 1.75 1.75 0 1 0 .317 3.485 17.553 17.553 0 0 1 4.91 1.076c.017.006.035 0 .052.009s.05.024.078.031a4.293 4.293 0 0 1 3.327 2.848 6.883 6.883 0 0 0 -3.426.255 4.98 4.98 0 0 0 -4.2-1.738 1.752 1.752 0 0 0 -1.389 1.176c-.714 2.14-3.023 3.322-4.794 3.934a18.212 18.212 0 0 0 -2.227-9.023 1.75 1.75 0 1 0 -3.058 1.716 15.162 15.162 0 0 1 1.628 9.262 16.717 16.717 0 0 1 -8.928 11.405 1.75 1.75 0 0 0 -1.06 1.654 15.758 15.758 0 0 0 3.756 9.982 1.753 1.753 0 0 0 .811.481 6.746 6.746 0 0 1 4.5 3.67h-8.865c-.852-6.373-4.461-12.177-5.954-14.348a13.84 13.84 0 0 0 1.179-7.1 12.438 12.438 0 0 0 -4.854-13 1.75 1.75 0 0 0 -2.126 2.78 8.869 8.869 0 0 1 3.624 9.2c-2.458 2.507-20.529 20.023-34.685 8.972zm30.731 5.157a11.069 11.069 0 0 0 .53-6.512c1.106-.844 2.1-1.66 2.944-2.392a11.542 11.542 0 0 1 -.915 2.238 1.75 1.75 0 0 0 .151 1.889c.052.068 4.755 6.309 5.835 13.116h-6.565a22.279 22.279 0 0 0 -1.98-8.335z"/></g></svg>